# ProBuilder 4.5.2
# https://unity3d.com/unity/features/worldbuilding/probuilder
# 2022-07-05 9:29:38 AM

mtllib ./house.mtl
o house

g Cube(Clone)(Clone)(Clone)
v 0 0 -1
v 0.919625 0 -1
v 0.919625 0.1095133 -1
v 0 0.1095133 -1
v 1 0 -1
v 1 0.1095133 -1
v 1 0 0
v 0.919625 0 0
v 0.919625 0.1095133 0
v 1 0.1095133 0
v 0 0 0
v 0 0.1095133 0
v 1 0 -0.9276767
v 1 0.1095133 -0.9276767
v 0 0 -0.9276767
v 0 0.1095133 -0.9198678
v 0.919625 0.1095133 -0.9276767
v 0.919625 0 -0.9276767
v 0.919625 0.857857 -0.9276767
v 0 0.857857 -0.9276767
v 0 0.857857 -1
v 1 0.857857 -1
v 1 0.857857 -0.9276767
v 0.919625 0.857857 -1
v 1 0.857857 0
v 0.919625 0.857857 0
v 0 0 1
v -0.919625 0 1
v -0.919625 0.1095133 1
v 0 0.1095133 1
v -1 0 1
v -1 0.1095133 1
v -1 0 0
v -0.919625 0 0
v -0.919625 0.1095133 0
v -1 0.1095133 0
v -1 0 0.9276767
v -1 0.1095133 0.9276767
v 0 0 0.9276767
v 0 0.1095133 0.9276767
v -0.919625 0.1095133 0.9276767
v -0.919625 0 0.9276767
v -0.919625 0.857857 0.9276767
v 0 0.857857 0.9276767
v 0 0.857857 1
v -1 0.857857 1
v -1 0.857857 0.9276767
v -0.919625 0.857857 1
v -1 0.857857 0
v -0.919625 0.857857 0
v -0.919625 0 -1
v -1 0 -1
v -1 0.1095133 -1
v -0.919625 0.1095133 -1
v -1 0 -0.9276767
v -1 0.1095133 -0.9276767
v -0.919625 0 -0.9276767
v -1 0.857857 -1
v -1 0.857857 -0.9276767
v 0.919625 0 1
v 0.919625 0.1095133 1
v 1 0 1
v 1 0.1095133 1
v 1 0 0.9276767
v 1 0.1095133 0.9276767
v 0.919625 0.1095133 0.9276767
v 0.919625 0 0.9276767
v 0.919625 0.857857 0.9276767
v 1 0.857857 1
v 1 0.857857 0.9276767
v 0.919625 0.857857 1
v -0.3500004 1.431086 0
v -0.3500004 1.431086 -0.3246872
v 0 1.431086 -0.3500004
v 0 1.431086 -0.3246872
v -0.919625 0.857857 -0.9276767
v -0.3218691 1.431086 -0.3246872
v -0.3218691 1.431086 0
v -0.3500004 1.431086 -0.3500004
v -0.919625 0.857857 -1
v -0.3218691 1.431086 -0.3500004
v -0.3218691 1.431086 0.3246872
v -0.3500004 1.431086 0.3246872
v 0 1.431086 0.3500004
v -0.3218691 1.431086 0.3500004
v -0.3500004 1.431086 0.3500004
v 0 1.431086 0.3246872
v 0.3218691 1.431086 0.3246872
v 0.3218691 1.431086 0
v 0.3218691 1.431086 0.3500004
v 0.3500004 1.431086 0.3246872
v 0.3500004 1.431086 0.3500004
v 0.3500004 1.431086 0
v 0.3218691 1.431086 -0.3246872
v 0.3500004 1.431086 -0.3246872
v 0.3218691 1.431086 -0.3500004
v 0.3500004 1.431086 -0.3500004
v 0 1.593038 0
v -0.2961462 0.1095133 -1
v -0.919625 0.1095133 -0.9276767
v -0.2961462 0.1095133 -0.9198678
v -0.4598125 0.857857 -0.9276767
v -0.2961462 0.6590149 -0.9198678
v -0.919625 0.4836851 -0.9276767
v 0 0.6590149 -0.9198678
v 0 0.6590149 -1
v -0.4598125 0.857857 -1
v -0.2961462 0.6590149 -1
v -0.919625 0.4836851 -1
v 0 0.1095133 -0.9222906
v 0 0.6590149 -0.9222906
v -0.2961462 0.6590149 -0.9222906
v -0.2961462 0.1095133 -0.9222906

vt 0 0
vt -0.919625 0
vt -0.919625 0.1095133
vt 0 0.1095133
vt -1 0
vt -1 0.1095133
vt 1 0
vt 0.919625 0
vt 0.919625 0.1095133
vt 1 0.1095133
vt 0.9276767 0
vt 0.9276767 0.1095133
vt -0.9276767 0
vt 0 -0.9198678
vt -0.919625 -0.9276767
vt 0.919625 -0.9276767
vt 0 -0.9276767
vt 0.919625 -1
vt 0 -1
vt 1 -0.9276767
vt 1 -1
vt 0.9274689 0.1095133
vt 0.007810645 0.1095133
vt 0.9274689 0.857857
vt 0.00787695 0.857857
vt -0.9276767 0.857857
vt -1 0.857857
vt 1 0.857857
vt 0.9276767 0.857857
vt 0 0.857857
vt -0.919625 0.857857
vt 0.919625 0.857857
vt -0.9276767 0.1095133
vt 0 0.9276767
vt 0.919625 0.9276767
vt -0.919625 0.9276767
vt -0.919625 1
vt 0 1
vt -1 0.9276767
vt -1 1
vt 1.072323 0.1095133
vt 1.072323 0.857857
vt -1.072323 0.1095133
vt -1.072323 0.857857
vt 2 0.1095133
vt 2 0.857857
vt -2 0.1095133
vt -2 0.857857
vt 0.9960955 0
vt -0.919625 -1
vt -1 -0.9276767
vt -1 -1
vt 0.919625 1
vt 1 0.9276767
vt 1 1
vt 0.1826003 0
vt 0.1826003 -0.9276767
vt -0.6840544 0
vt -0.6840544 -0.3246872
vt 0.3500004 1.431086
vt 0.3246872 1.431086
vt -0.06998751 -0.9276767
vt -0.06998751 0
vt 0.7582052 -0.3246872
vt 0.7582052 0
vt -0.3218691 1.431086
vt -0.3500004 1.431086
vt 0.1826003 -1
vt -0.6840545 -0.3500004
vt 1 -0.1826004
vt 0.919625 -0.1826004
vt 0.3500004 0.6840544
vt 0.3218691 0.6840544
vt 1 -1.142143
vt 0.919625 -1.142143
vt 0.3500004 -0.5689144
vt 0.3218691 -0.5689144
vt -0.06998751 -2
vt -0.06998751 -1.072323
vt 0.7582052 -2
vt 0.7582052 -1.675313
vt 0.1826003 -1.072323
vt 0.1826003 -2
vt -0.6840544 -1.675313
vt -0.6840544 -2
vt 0 -1.8174
vt 0.919625 -1.8174
vt 0 -2.684054
vt 0.3218691 -2.684054
vt -0.6840545 -1.65
vt 1 -1.8174
vt 0.3500004 -2.684054
vt -0.919625 -1.918711
vt 0 -1.918711
vt -0.3218691 -2.750689
vt 0 -2.750689
vt -0.9276767 -1.142143
vt -1 -1.142143
vt -0.3246872 -0.5689144
vt -0.3500004 -0.5689144
vt 0.06998751 -1.072323
vt 0.06998751 -2
vt -0.7582052 -1.675313
vt -0.7582052 -2
vt -0.919625 -1.8174
vt -0.3218691 -2.684054
vt 0.9276767 -1.142143
vt 0.3246872 -0.5689144
vt 0.919625 -1.918711
vt 0.3218691 -2.750689
vt -0.1826003 -1.072323
vt -0.1826003 -1
vt 0.6840545 -1.675313
vt 0.6840545 -1.65
vt -1 -1.8174
vt -0.3500004 -2.684054
vt -0.1826002 -2
vt 0.6840545 -2
vt -0.919625 -1.142143
vt -0.3218691 -0.5689144
vt 0.3218691 1.431086
vt 0.06998751 0
vt 0.06998751 -0.9276767
vt -0.7582052 0
vt -0.7582052 -0.3246872
vt -0.1826002 -0.9276767
vt -0.1826002 0
vt 0.6840545 -0.3246872
vt 0.6840545 0
vt 0 -0.1826003
vt -0.919625 -0.1826003
vt 0 0.6840544
vt -0.3218691 0.6840544
vt 0.6840545 -0.3500004
vt -1 -0.1826004
vt -0.3500004 0.6840544
vt 0.919625 -0.08128946
vt 0 -0.08128946
vt 0.3218691 0.7506885
vt 0 0.7506885
vt -0.3246872 1.431086
vt -0.2833309 0
vt -0.2833309 -0.3246872
vt -0.6689847 0
vt 0 1.593038
vt 0.3557094 -0.3246872
vt 0.3557094 0
vt 0.7160264 0
vt -0.2833308 -0.3500004
vt 0.3500004 0.2833309
vt 0.3218691 0.2833309
vt 0 0.6689847
vt 0 0.2833309
vt 0 0.3482175
vt -0.3218691 0.3482175
vt 0 0.7110541
vt 0 -0.4069619
vt 0.3557094 -2
vt 0.3557094 -1.675313
vt 0.7160264 -2
vt -0.2833309 -1.675313
vt -0.2833309 -2
vt -0.6689847 -2
vt 0 -2.283331
vt 0.3218691 -2.283331
vt 0 -2.668985
vt -0.2833308 -1.65
vt 0.3500004 -2.283331
vt -0.3218691 -2.348217
vt 0 -2.348217
vt 0 -2.711054
vt -0.3557094 -1.675313
vt -0.3557094 -2
vt -0.7160264 -2
vt -0.3218691 -2.283331
vt 0.3218691 -2.348217
vt 0.2833306 -1.675313
vt 0.2833306 -1.65
vt 0.6689845 -2
vt -0.3500004 -2.283331
vt 0.2833307 -2
vt -0.3557094 0
vt -0.3557094 -0.3246872
vt -0.7160264 0
vt 0.2833307 -0.3246872
vt 0.2833307 0
vt 0.6689846 0
vt -0.3218691 0.2833309
vt 0.2833306 -0.3500004
vt -0.3500004 0.2833308
vt 0.3218691 0.3482175
vt 0.2961462 -0.9198678
vt -0.9273404 0.8698195
vt -0.4675439 0.8698697
vt -0.303818 0.6709604
vt -0.9273404 0.4956796
vt -0.007747409 0.86992
vt -0.007682194 0.6709927
vt -0.303818 0.1215057
vt -0.9273404 0.1215398
vt 1 0.6590149
vt 0.9198678 0.6590149
vt 0.4598125 0.857857
vt 0.2961462 0.6590149
vt 0 0.6590149
vt 0.919625 0.4836851
vt 0.2961462 0.1095133
vt 0.9276767 0.4836851
vt 0.4598125 -0.1826003
vt -0.4598125 -0.08128951
vt -0.919625 -0.0812895
vt -0.3218691 0.7506884
vt -1 0.6590149
vt -0.9222906 0.1095133
vt -0.9222906 0.6590149
vt -0.2961462 -1
vt 0 -0.9222906
vt -0.2961462 -0.9222906
vt 0.9222906 0.6590149
vt 0.9222906 0.1095133
vt 0.2961462 -1
vt 0.2961462 -0.9222906

vn 0 0 -1
vn 0 0 1
vn 1 0 0
vn -1 0 0
vn 0 1 0
vn 0 -1 0
vn 0.008491051 0 0.999964
vn 0.004245526 0.005217148 0.9999548
vn 0 0.0104343 0.9999456
vn -0.6614267 0.7500098 0
vn 0.692144 -0.7217594 0
vn 0 0.7500098 -0.6614267
vn 0 0.7500098 0.6614267
vn 0 -0.7247661 -0.688995
vn -0.692144 -0.7217594 0
vn 0.6614267 0.7500098 0
vn 0 -0.7247661 0.688995
vn -0.4199427 0.9075506 0
vn 0.4494722 -0.8932943 0
vn 0 0.9075506 -0.4199427
vn 0 -0.8948579 0.446351
vn 0 0.9075507 0.4199427
vn 0 -0.8948579 -0.446351
vn -0.4494722 -0.8932943 0
vn 0.4199426 0.9075507 0
vn -0.006261841 0.01962072 0.9995757
vn 0 0.03924145 0.9992298
vn -0.01252368 0 0.9999216

usemtl Lit
f 98/144/18 73/143/18 72/142/18
f 98/145/3 75/61/3 74/60/3
f 98/148/19 78/147/19 77/146/19
f 98/145/2 72/67/2 78/66/2
f 98/144/18 79/149/18 73/143/18
f 98/152/20 81/151/20 79/150/20
f 98/152/20 74/153/20 81/151/20
f 98/156/21 77/155/21 75/154/21
f 98/157/1 78/77/1 72/76/1
f 98/160/19 82/159/19 78/158/19
f 98/163/18 72/162/18 83/161/18
f 98/166/22 85/165/22 84/164/22
f 98/163/18 83/161/18 86/167/18
f 98/166/22 86/168/22 85/165/22
f 98/171/23 87/170/23 82/169/23
f 98/157/3 84/100/3 87/99/3
f 98/174/24 89/173/24 88/172/24
f 98/166/22 84/164/22 90/175/22
f 98/157/4 87/108/4 84/76/4
f 98/171/23 88/176/23 87/170/23
f 98/179/25 92/178/25 91/177/25
f 98/166/22 90/175/22 92/180/22
f 98/179/25 91/177/25 93/181/25
f 98/157/1 93/100/1 89/120/1
f 98/145/2 89/121/2 93/60/2
f 98/184/24 94/183/24 89/182/24
f 98/187/25 93/186/25 95/185/25
f 98/152/20 96/188/20 74/153/20
f 98/187/25 95/185/25 97/189/25
f 98/152/20 97/190/20 96/188/20
f 98/156/21 75/154/21 94/191/21
f 98/145/4 74/67/4 75/141/4
f 51/1/1 54/1/1 99/1/1
f 51/1/1 99/1/1 1/1/1
f 4/1/1 1/1/1 99/1/1
f 12/1/5 16/14/5 101/192/5
f 101/192/5 100/16/5 35/8/5
f 12/1/5 101/192/5 35/8/5
f 106/201/3 21/28/3 20/29/3
f 105/202/3 106/201/3 20/29/3
f 4/10/3 106/201/3 105/202/3
f 16/9/3 4/10/3 105/202/3
f 80/32/1 109/206/1 58/28/1
f 109/206/1 53/10/1 58/28/1
f 109/206/1 54/9/1 53/10/1
f 104/208/3 76/29/3 50/30/3
f 35/4/3 104/208/3 50/30/3
f 35/4/3 100/12/3 104/208/3
f 81/73/12 107/209/12 80/71/12
f 81/73/12 21/130/12 107/209/12
f 74/132/12 21/130/12 81/73/12
f 77/212/17 20/138/17 75/140/17
f 102/210/17 20/138/17 77/212/17
f 76/211/17 102/210/17 77/212/17
f 3/3/1 2/2/1 1/1/1
f 1/1/1 4/4/1 3/3/1
f 6/6/1 5/5/1 2/2/1
f 2/2/1 3/3/1 6/6/1
f 10/10/2 9/9/2 8/8/2
f 8/8/2 7/7/2 10/10/2
f 9/9/2 12/4/2 11/1/2
f 11/1/2 8/8/2 9/9/2
f 14/12/3 13/11/3 5/7/3
f 5/7/3 6/10/3 14/12/3
f 10/4/3 7/1/3 13/11/3
f 13/11/3 14/12/3 10/4/3
f 12/4/4 16/3/4 15/13/4
f 15/13/4 11/1/4 12/4/4
f 16/3/4 4/6/4 1/5/4
f 1/5/4 15/13/4 16/3/4
f 16/14/5 12/1/5 9/2/5
f 9/2/5 17/15/5 16/14/5
f 15/17/6 18/16/6 8/8/6
f 8/8/6 11/1/6 15/17/6
f 1/19/6 2/18/6 18/16/6
f 18/16/6 15/17/6 1/19/6
f 18/16/6 13/20/6 7/7/6
f 7/7/6 8/8/6 18/16/6
f 2/18/6 5/21/6 13/20/6
f 13/20/6 18/16/6 2/18/6
f 20/25/9 16/23/8 17/22/7
f 17/22/7 19/24/8 20/25/9
f 21/27/4 4/6/4 16/3/4
f 16/3/4 20/26/4 21/27/4
f 23/29/3 14/12/3 6/10/3
f 6/10/3 22/28/3 23/29/3
f 24/31/1 3/3/1 4/4/1
f 4/4/1 21/30/1 24/31/1
f 22/27/1 6/6/1 3/3/1
f 3/3/1 24/31/1 22/27/1
f 26/32/2 9/9/2 10/10/2
f 10/10/2 25/28/2 26/32/2
f 19/26/4 17/33/4 9/4/4
f 9/4/4 26/30/4 19/26/4
f 25/30/3 10/4/3 14/12/3
f 14/12/3 23/29/3 25/30/3
f 29/1/2 28/1/2 27/1/2
f 27/1/2 30/1/2 29/1/2
f 32/1/2 31/1/2 28/1/2
f 28/1/2 29/1/2 32/1/2
f 36/1/1 35/1/1 34/1/1
f 34/1/1 33/1/1 36/1/1
f 35/1/1 12/1/1 11/1/1
f 11/1/1 34/1/1 35/1/1
f 38/5/4 37/5/4 31/5/4
f 31/5/4 32/5/4 38/5/4
f 36/5/4 33/5/4 37/5/4
f 37/5/4 38/5/4 36/5/4
f 12/7/3 40/7/3 39/7/3
f 39/7/3 11/7/3 12/7/3
f 40/7/3 30/7/3 27/7/3
f 27/7/3 39/7/3 40/7/3
f 40/34/5 12/1/5 35/8/5
f 35/8/5 41/35/5 40/34/5
f 39/34/6 42/36/6 34/2/6
f 34/2/6 11/1/6 39/34/6
f 27/38/6 28/37/6 42/36/6
f 42/36/6 39/34/6 27/38/6
f 42/36/6 37/39/6 33/5/6
f 33/5/6 34/2/6 42/36/6
f 28/37/6 31/40/6 37/39/6
f 37/39/6 42/36/6 28/37/6
f 44/30/1 40/4/1 41/9/1
f 41/9/1 43/32/1 44/30/1
f 45/28/3 30/10/3 40/41/3
f 40/41/3 44/42/3 45/28/3
f 47/44/4 38/43/4 32/6/4
f 32/6/4 46/27/4 47/44/4
f 48/31/2 29/3/2 30/4/2
f 30/4/2 45/30/2 48/31/2
f 46/27/2 32/6/2 29/3/2
f 29/3/2 48/31/2 46/27/2
f 50/32/1 35/9/1 36/10/1
f 36/10/1 49/28/1 50/32/1
f 43/42/3 41/41/3 35/45/3
f 35/45/3 50/46/3 43/42/3
f 49/48/4 36/47/4 38/43/4
f 38/43/4 47/44/4 49/48/4
f 53/1/1 54/1/1 51/1/1
f 51/1/1 52/1/1 53/1/1
f 36/1/2 33/1/2 34/1/2
f 34/1/2 35/1/2 36/1/2
f 35/1/2 34/1/2 11/1/2
f 11/1/2 12/1/2 35/1/2
f 56/5/4 53/5/4 52/5/4
f 52/5/4 55/5/4 56/5/4
f 36/5/4 56/5/4 55/5/4
f 55/5/4 33/5/4 36/5/4
f 12/7/3 11/7/3 15/7/3
f 15/7/3 16/7/3 12/7/3
f 16/49/3 15/49/3 1/49/3
f 1/49/3 4/49/3 16/49/3
f 15/17/6 11/1/6 34/2/6
f 34/2/6 57/15/6 15/17/6
f 1/19/6 15/17/6 57/15/6
f 57/15/6 51/50/6 1/19/6
f 57/15/6 34/2/6 33/5/6
f 33/5/6 55/51/6 57/15/6
f 51/50/6 57/15/6 55/51/6
f 55/51/6 52/52/6 51/50/6
f 56/33/4 59/26/4 58/27/4
f 58/27/4 53/6/4 56/33/4
f 35/3/2 50/31/2 49/27/2
f 49/27/2 36/6/2 35/3/2
f 36/4/4 49/30/4 59/26/4
f 59/26/4 56/33/4 36/4/4
f 61/1/2 30/1/2 27/1/2
f 27/1/2 60/1/2 61/1/2
f 63/1/2 61/1/2 60/1/2
f 60/1/2 62/1/2 63/1/2
f 10/1/1 7/1/1 8/1/1
f 8/1/1 9/1/1 10/1/1
f 9/1/1 8/1/1 11/1/1
f 11/1/1 12/1/1 9/1/1
f 65/7/3 63/7/3 62/7/3
f 62/7/3 64/7/3 65/7/3
f 10/7/3 65/7/3 64/7/3
f 64/7/3 7/7/3 10/7/3
f 12/5/4 11/5/4 39/5/4
f 39/5/4 40/5/4 12/5/4
f 40/5/4 39/5/4 27/5/4
f 27/5/4 30/5/4 40/5/4
f 40/34/5 66/36/5 9/2/5
f 9/2/5 12/1/5 40/34/5
f 39/34/6 11/1/6 8/8/6
f 8/8/6 67/35/6 39/34/6
f 27/38/6 39/34/6 67/35/6
f 67/35/6 60/53/6 27/38/6
f 67/35/6 8/8/6 7/7/6
f 7/7/6 64/54/6 67/35/6
f 60/53/6 67/35/6 64/54/6
f 64/54/6 62/55/6 60/53/6
f 40/4/1 44/30/1 68/31/1
f 68/31/1 66/3/1 40/4/1
f 30/6/4 45/27/4 44/44/4
f 44/44/4 40/43/4 30/6/4
f 65/41/3 70/42/3 69/28/3
f 69/28/3 63/10/3 65/41/3
f 61/9/2 71/32/2 45/30/2
f 45/30/2 30/4/2 61/9/2
f 63/10/2 69/28/2 71/32/2
f 71/32/2 61/9/2 63/10/2
f 9/3/1 26/31/1 25/27/1
f 25/27/1 10/6/1 9/3/1
f 66/43/4 68/44/4 26/48/4
f 26/48/4 9/47/4 66/43/4
f 10/45/3 25/46/3 70/42/3
f 70/42/3 65/41/3 10/45/3
f 73/59/10 59/57/10 49/56/10
f 49/56/10 72/58/10 73/59/10
f 75/61/3 20/29/3 21/28/3
f 21/28/3 74/60/3 75/61/3
f 78/65/11 50/63/11 76/62/11
f 76/62/11 77/64/11 78/65/11
f 72/67/2 49/27/2 50/31/2
f 50/31/2 78/66/2 72/67/2
f 79/69/10 58/68/10 59/57/10
f 59/57/10 73/59/10 79/69/10
f 81/73/12 80/71/12 58/70/12
f 58/70/12 79/72/12 81/73/12
f 78/77/1 50/75/1 49/74/1
f 49/74/1 72/76/1 78/77/1
f 82/81/11 43/79/11 50/78/11
f 50/78/11 78/80/11 82/81/11
f 72/85/10 49/83/10 47/82/10
f 47/82/10 83/84/10 72/85/10
f 85/89/13 48/87/13 45/86/13
f 45/86/13 84/88/13 85/89/13
f 83/84/10 47/82/10 46/68/10
f 46/68/10 86/90/10 83/84/10
f 86/92/13 46/91/13 48/87/13
f 48/87/13 85/89/13 86/92/13
f 87/96/14 44/94/14 43/93/14
f 43/93/14 82/95/14 87/96/14
f 84/100/3 45/98/3 44/97/3
f 44/97/3 87/99/3 84/100/3
f 89/104/15 26/102/15 68/101/15
f 68/101/15 88/103/15 89/104/15
f 84/88/13 45/86/13 71/105/13
f 71/105/13 90/106/13 84/88/13
f 87/108/4 44/107/4 45/74/4
f 45/74/4 84/76/4 87/108/4
f 88/110/14 68/109/14 44/94/14
f 44/94/14 87/96/14 88/110/14
f 92/114/16 69/112/16 70/111/16
f 70/111/16 91/113/16 92/114/16
f 90/106/13 71/105/13 69/115/13
f 69/115/13 92/116/13 90/106/13
f 91/113/16 70/111/16 25/117/16
f 25/117/16 93/118/16 91/113/16
f 93/100/1 25/98/1 26/119/1
f 26/119/1 89/120/1 93/100/1
f 89/121/2 26/32/2 25/28/2
f 25/28/2 93/60/2 89/121/2
f 94/125/15 19/123/15 26/122/15
f 26/122/15 89/124/15 94/125/15
f 93/129/16 25/127/16 23/126/16
f 23/126/16 95/128/16 93/129/16
f 96/133/12 24/131/12 21/130/12
f 21/130/12 74/132/12 96/133/12
f 95/128/16 23/126/16 22/112/16
f 22/112/16 97/134/16 95/128/16
f 97/136/12 22/135/12 24/131/12
f 24/131/12 96/133/12 97/136/12
f 75/140/17 20/138/17 19/137/17
f 19/137/17 94/139/17 75/140/17
f 74/67/4 21/27/4 20/26/4
f 20/26/4 75/141/4 74/67/4
f 76/193/26 104/196/28 103/195/26
f 103/195/26 102/194/27 76/193/26
f 102/194/27 103/195/27 105/198/27
f 105/198/27 20/197/27 102/194/27
f 104/196/28 100/200/28 101/199/28
f 101/199/28 103/195/28 104/196/28
f 107/203/1 21/30/1 106/205/1
f 106/205/1 108/204/1 107/203/1
f 80/32/1 107/203/1 108/204/1
f 108/204/1 109/206/1 80/32/1
f 109/206/1 108/204/1 99/207/1
f 99/207/1 54/9/1 109/206/1
f 111/215/4 106/213/4 4/6/4
f 4/6/4 110/214/4 111/215/4
f 112/218/6 108/216/6 106/19/6
f 106/19/6 111/217/6 112/218/6
f 113/220/3 99/10/3 108/201/3
f 108/201/3 112/219/3 113/220/3
f 110/217/5 4/19/5 99/221/5
f 99/221/5 113/222/5 110/217/5

